ISO-10303-21;
HEADER;
FILE_DESCRIPTION(('FreeCAD Model'),'2;1');
FILE_NAME('Open CASCADE Shape Model','2023-02-15T15:02:36',(''),(''),
  'Open CASCADE STEP processor 7.6','FreeCAD','Unknown');
FILE_SCHEMA(('AUTOMOTIVE_DESIGN { 1 0 10303 214 1 1 1 1 }'));
ENDSEC;
DATA;
#1 = APPLICATION_PROTOCOL_DEFINITION('international standard',
  'automotive_design',2000,#2);
#2 = APPLICATION_CONTEXT(
  'core data for automotive mechanical design processes');
#3 = SHAPE_DEFINITION_REPRESENTATION(#4,#10);
#4 = PRODUCT_DEFINITION_SHAPE('','',#5);
#5 = PRODUCT_DEFINITION('design','',#6,#9);
#6 = PRODUCT_DEFINITION_FORMATION('','',#7);
#7 = PRODUCT('Body','Body','',(#8));
#8 = PRODUCT_CONTEXT('',#2,'mechanical');
#9 = PRODUCT_DEFINITION_CONTEXT('part definition',#2,'design');
#10 = ADVANCED_BREP_SHAPE_REPRESENTATION('',(#11,#15),#535);
#11 = AXIS2_PLACEMENT_3D('',#12,#13,#14);
#12 = CARTESIAN_POINT('',(0.,0.,0.));
#13 = DIRECTION('',(0.,0.,1.));
#14 = DIRECTION('',(1.,0.,-0.));
#15 = MANIFOLD_SOLID_BREP('',#16);
#16 = CLOSED_SHELL('',(#17,#269,#375,#442,#485,#528));
#17 = ADVANCED_FACE('',(#18),#31,.T.);
#18 = FACE_BOUND('',#19,.T.);
#19 = EDGE_LOOP('',(#20,#87,#149,#209));
#20 = ORIENTED_EDGE('',*,*,#21,.T.);
#21 = EDGE_CURVE('',#22,#24,#26,.T.);
#22 = VERTEX_POINT('',#23);
#23 = CARTESIAN_POINT('',(-1.5,-5.000000000018E-02,-8.881784197001E-16)
  );
#24 = VERTEX_POINT('',#25);
#25 = CARTESIAN_POINT('',(-1.5,4.999999999984E-02,8.881784197001E-16));
#26 = SURFACE_CURVE('',#27,(#30,#41),.PCURVE_S1.);
#27 = B_SPLINE_CURVE_WITH_KNOTS('',1,(#28,#29),.UNSPECIFIED.,.F.,.F.,(2,
    2),(0.,1.E-01),.PIECEWISE_BEZIER_KNOTS.);
#28 = CARTESIAN_POINT('',(-1.5,-5.000000000018E-02,-8.881784197001E-16)
  );
#29 = CARTESIAN_POINT('',(-1.5,4.999999999984E-02,0.));
#30 = PCURVE('',#31,#36);
#31 = PLANE('',#32);
#32 = AXIS2_PLACEMENT_3D('',#33,#34,#35);
#33 = CARTESIAN_POINT('',(1.723352643386E-13,-1.136814656747E-13,
    -1.899522206195E-16));
#34 = DIRECTION('',(-1.9585587632E-20,2.797941090273E-20,-1.));
#35 = DIRECTION('',(0.,-1.,-2.797941090273E-20));
#36 = DEFINITIONAL_REPRESENTATION('',(#37),#40);
#37 = B_SPLINE_CURVE_WITH_KNOTS('',1,(#38,#39),.UNSPECIFIED.,.F.,.F.,(2,
    2),(0.,1.E-01),.PIECEWISE_BEZIER_KNOTS.);
#38 = CARTESIAN_POINT('',(5.000000000007E-02,1.5));
#39 = CARTESIAN_POINT('',(-4.999999999995E-02,1.5));
#40 = ( GEOMETRIC_REPRESENTATION_CONTEXT(2) 
PARAMETRIC_REPRESENTATION_CONTEXT() REPRESENTATION_CONTEXT('2D SPACE',''
  ) );
#41 = PCURVE('',#42,#81);
#42 = B_SPLINE_SURFACE_WITH_KNOTS('',1,10,(
    (#43,#44,#45,#46,#47,#48,#49,#50,#51,#52,#53,#54,#55,#56,#57,#58,#59
      ,#60,#61)
    ,(#62,#63,#64,#65,#66,#67,#68,#69,#70,#71,#72,#73,#74,#75,#76,#77
      ,#78,#79,#80
    )),.UNSPECIFIED.,.F.,.F.,.F.,(2,2),(11,8,11),(0.,1.E-01),(0.,
    1.648454154738,3.296908309476),.UNSPECIFIED.);
#43 = CARTESIAN_POINT('',(-1.5,-5.000000000018E-02,-8.881784197001E-16)
  );
#44 = CARTESIAN_POINT('',(-1.49214457457,-0.285616566541,1.000000017789)
  );
#45 = CARTESIAN_POINT('',(-1.443174618559,-0.519878710634,2.000000177712
    ));
#46 = CARTESIAN_POINT('',(-1.35332502412,-0.744656148604,2.99999945333)
  );
#47 = CARTESIAN_POINT('',(-1.224748307194,-0.952025165911,4.000000740385
    ));
#48 = CARTESIAN_POINT('',(-1.061218642182,-1.134418849017,4.999999586177
    ));
#49 = CARTESIAN_POINT('',(-0.868350160547,-1.285410012618,6.00000008996)
  );
#50 = CARTESIAN_POINT('',(-0.652894975532,-1.399923026986,6.999999991129
    ));
#51 = CARTESIAN_POINT('',(-0.422609619217,-1.474584645579,8.000000028829
    ));
#52 = CARTESIAN_POINT('',(5.13707812069E-02,-1.541123345552,
    10.000000009833));
#53 = CARTESIAN_POINT('',(0.51986805772,-1.443168659587,11.99999999083)
  );
#54 = CARTESIAN_POINT('',(0.744670536853,-1.353336398527,13.000000028539
    ));
#55 = CARTESIAN_POINT('',(0.95201998802,-1.224736870292,13.999999929646)
  );
#56 = CARTESIAN_POINT('',(1.134413533399,-1.061220407916,15.000000433603
    ));
#57 = CARTESIAN_POINT('',(1.285412714076,-0.868362424413,15.99999927918)
  );
#58 = CARTESIAN_POINT('',(1.399927739306,-0.652877247253,17.000000566364
    ));
#59 = CARTESIAN_POINT('',(1.474579682372,-0.422620771758,17.9999998419)
  );
#60 = CARTESIAN_POINT('',(1.507855425141,-0.185616567071,19.000000001986
    ));
#61 = CARTESIAN_POINT('',(1.499999999852,4.999999970738E-02,
    20.00000001956));
#62 = CARTESIAN_POINT('',(-1.5,4.999999999984E-02,0.));
#63 = CARTESIAN_POINT('',(-1.507852538161,-0.185616566541,1.000000017789
    ));
#64 = CARTESIAN_POINT('',(-1.474590543885,-0.422620267524,2.000000177705
    ));
#65 = CARTESIAN_POINT('',(-1.39991061245,-0.652880818395,2.999999453352)
  );
#66 = CARTESIAN_POINT('',(-1.285426944836,-0.868353712614,4.000000740358
    ));
#67 = CARTESIAN_POINT('',(-1.134407049692,-1.061230440949,4.999999586188
    ));
#68 = CARTESIAN_POINT('',(-0.952021614877,-1.224731374056,6.00000008996)
  );
#69 = CARTESIAN_POINT('',(-0.744670305188,-1.353337440434,6.999999991129
    ));
#70 = CARTESIAN_POINT('',(-0.519868062439,-1.443168719041,8.000000028828
    ));
#71 = CARTESIAN_POINT('',(-5.137077557161E-02,-1.541123345552,
    10.000000009833));
#72 = CARTESIAN_POINT('',(0.422609614499,-1.474584586125,11.999999990831
    ));
#73 = CARTESIAN_POINT('',(0.652895207197,-1.399921985081,13.000000028537
    ));
#74 = CARTESIAN_POINT('',(0.868348533687,-1.285415508852,13.999999929653
    ));
#75 = CARTESIAN_POINT('',(1.061225125897,-1.134408815984,15.000000433575
    ));
#76 = CARTESIAN_POINT('',(1.224734076428,-0.95203387771,15.99999927922)
  );
#77 = CARTESIAN_POINT('',(1.353342150978,-0.744652577462,17.000000566335
    ));
#78 = CARTESIAN_POINT('',(1.443163757047,-0.519879214867,17.999999841908
    ));
#79 = CARTESIAN_POINT('',(1.49214746155,-0.285616567071,19.000000001986)
  );
#80 = CARTESIAN_POINT('',(1.499999999853,-5.000000029264E-02,
    20.000000019559));
#81 = DEFINITIONAL_REPRESENTATION('',(#82),#86);
#82 = LINE('',#83,#84);
#83 = CARTESIAN_POINT('',(0.,0.));
#84 = VECTOR('',#85,1.);
#85 = DIRECTION('',(1.,0.));
#86 = ( GEOMETRIC_REPRESENTATION_CONTEXT(2) 
PARAMETRIC_REPRESENTATION_CONTEXT() REPRESENTATION_CONTEXT('2D SPACE',''
  ) );
#87 = ORIENTED_EDGE('',*,*,#88,.T.);
#88 = EDGE_CURVE('',#24,#89,#91,.T.);
#89 = VERTEX_POINT('',#90);
#90 = CARTESIAN_POINT('',(1.5,4.999999999984E-02,-8.881784197001E-16));
#91 = SURFACE_CURVE('',#92,(#96,#103),.PCURVE_S1.);
#92 = LINE('',#93,#94);
#93 = CARTESIAN_POINT('',(-1.5,4.99999999999E-02,-1.899522206195E-16));
#94 = VECTOR('',#95,1.);
#95 = DIRECTION('',(1.,0.,0.));
#96 = PCURVE('',#31,#97);
#97 = DEFINITIONAL_REPRESENTATION('',(#98),#102);
#98 = LINE('',#99,#100);
#99 = CARTESIAN_POINT('',(-5.000000000001E-02,1.5));
#100 = VECTOR('',#101,1.);
#101 = DIRECTION('',(0.,-1.));
#102 = ( GEOMETRIC_REPRESENTATION_CONTEXT(2) 
PARAMETRIC_REPRESENTATION_CONTEXT() REPRESENTATION_CONTEXT('2D SPACE',''
  ) );
#103 = PCURVE('',#104,#143);
#104 = B_SPLINE_SURFACE_WITH_KNOTS('',1,10,(
    (#105,#106,#107,#108,#109,#110,#111,#112,#113,#114,#115,#116,#117
      ,#118,#119,#120,#121,#122,#123)
    ,(#124,#125,#126,#127,#128,#129,#130,#131,#132,#133,#134,#135,#136
      ,#137,#138,#139,#140,#141,#142
    )),.UNSPECIFIED.,.F.,.F.,.F.,(2,2),(11,8,11),(0.,3.),(0.,
    1.648454154738,3.296908309476),.UNSPECIFIED.);
#105 = CARTESIAN_POINT('',(-1.5,4.999999999984E-02,8.881784197001E-16));
#106 = CARTESIAN_POINT('',(-1.507852538161,-0.185616566541,
    1.000000017789));
#107 = CARTESIAN_POINT('',(-1.474590543885,-0.422620267524,
    2.000000177705));
#108 = CARTESIAN_POINT('',(-1.39991061245,-0.652880818395,2.999999453352
    ));
#109 = CARTESIAN_POINT('',(-1.285426944836,-0.868353712614,
    4.000000740359));
#110 = CARTESIAN_POINT('',(-1.134407049692,-1.061230440949,
    4.999999586188));
#111 = CARTESIAN_POINT('',(-0.952021614877,-1.224731374056,6.00000008996
    ));
#112 = CARTESIAN_POINT('',(-0.744670305188,-1.353337440434,
    6.999999991128));
#113 = CARTESIAN_POINT('',(-0.519868062439,-1.443168719041,
    8.000000028828));
#114 = CARTESIAN_POINT('',(-5.137077557161E-02,-1.541123345552,
    10.000000009833));
#115 = CARTESIAN_POINT('',(0.422609614499,-1.474584586125,
    11.999999990831));
#116 = CARTESIAN_POINT('',(0.652895207197,-1.399921985081,
    13.000000028538));
#117 = CARTESIAN_POINT('',(0.868348533687,-1.285415508852,
    13.999999929652));
#118 = CARTESIAN_POINT('',(1.061225125897,-1.134408815984,
    15.000000433577));
#119 = CARTESIAN_POINT('',(1.224734076428,-0.95203387771,15.999999279218
    ));
#120 = CARTESIAN_POINT('',(1.353342150978,-0.744652577462,
    17.000000566336));
#121 = CARTESIAN_POINT('',(1.443163757047,-0.519879214867,
    17.999999841908));
#122 = CARTESIAN_POINT('',(1.49214746155,-0.285616567071,19.000000001986
    ));
#123 = CARTESIAN_POINT('',(1.499999999853,-5.000000029264E-02,
    20.000000019559));
#124 = CARTESIAN_POINT('',(1.5,4.999999999984E-02,-8.881784197001E-16));
#125 = CARTESIAN_POINT('',(1.492147461839,0.285622341182,1.000000017839)
  );
#126 = CARTESIAN_POINT('',(1.443162749392,0.51985749225,2.000000178182)
  );
#127 = CARTESIAN_POINT('',(1.353349293821,0.744686831416,2.99999945185)
  );
#128 = CARTESIAN_POINT('',(1.224716654013,0.952005416893,4.000000742436)
  );
#129 = CARTESIAN_POINT('',(1.061245192444,1.134421784049,4.999999584978)
  );
#130 = CARTESIAN_POINT('',(0.868337541866,1.285412255988,6.000000090246)
  );
#131 = CARTESIAN_POINT('',(0.652897291432,1.399922449231,6.999999991102)
  );
#132 = CARTESIAN_POINT('',(0.422609733703,1.474584577606,8.000000028906)
  );
#133 = CARTESIAN_POINT('',(-5.137077557233E-02,1.541123357802,
    10.000000009856));
#134 = CARTESIAN_POINT('',(-0.519868181644,1.443168710521,
    11.999999990807));
#135 = CARTESIAN_POINT('',(-0.744672389421,1.353337904583,
    13.000000028611));
#136 = CARTESIAN_POINT('',(-0.952010623067,1.224728121193,
    13.999999929508));
#137 = CARTESIAN_POINT('',(-1.134427116226,1.06124340901,15.000000434643
    ));
#138 = CARTESIAN_POINT('',(-1.285409522432,0.868325251797,
    15.999999277371));
#139 = CARTESIAN_POINT('',(-1.39991775529,0.652915072348,17.000000567825
    ));
#140 = CARTESIAN_POINT('',(-1.474589536231,0.422598544906,
    17.999999841483));
#141 = CARTESIAN_POINT('',(-1.50785253845,0.18562234065,19.000000001993)
  );
#142 = CARTESIAN_POINT('',(-1.500000000148,-5.000000029366E-02,
    20.000000019611));
#143 = DEFINITIONAL_REPRESENTATION('',(#144),#148);
#144 = LINE('',#145,#146);
#145 = CARTESIAN_POINT('',(0.,0.));
#146 = VECTOR('',#147,1.);
#147 = DIRECTION('',(1.,0.));
#148 = ( GEOMETRIC_REPRESENTATION_CONTEXT(2) 
PARAMETRIC_REPRESENTATION_CONTEXT() REPRESENTATION_CONTEXT('2D SPACE',''
  ) );
#149 = ORIENTED_EDGE('',*,*,#150,.T.);
#150 = EDGE_CURVE('',#89,#151,#153,.T.);
#151 = VERTEX_POINT('',#152);
#152 = CARTESIAN_POINT('',(1.5,-5.000000000018E-02,-8.881784197001E-16)
  );
#153 = SURFACE_CURVE('',#154,(#157,#163),.PCURVE_S1.);
#154 = B_SPLINE_CURVE_WITH_KNOTS('',1,(#155,#156),.UNSPECIFIED.,.F.,.F.,
  (2,2),(0.,1.E-01),.PIECEWISE_BEZIER_KNOTS.);
#155 = CARTESIAN_POINT('',(1.5,4.999999999984E-02,-8.881784197001E-16));
#156 = CARTESIAN_POINT('',(1.5,-5.000000000018E-02,-8.881784197001E-16)
  );
#157 = PCURVE('',#31,#158);
#158 = DEFINITIONAL_REPRESENTATION('',(#159),#162);
#159 = B_SPLINE_CURVE_WITH_KNOTS('',1,(#160,#161),.UNSPECIFIED.,.F.,.F.,
  (2,2),(0.,1.E-01),.PIECEWISE_BEZIER_KNOTS.);
#160 = CARTESIAN_POINT('',(-4.999999999995E-02,-1.5));
#161 = CARTESIAN_POINT('',(5.000000000007E-02,-1.5));
#162 = ( GEOMETRIC_REPRESENTATION_CONTEXT(2) 
PARAMETRIC_REPRESENTATION_CONTEXT() REPRESENTATION_CONTEXT('2D SPACE',''
  ) );
#163 = PCURVE('',#164,#203);
#164 = B_SPLINE_SURFACE_WITH_KNOTS('',1,10,(
    (#165,#166,#167,#168,#169,#170,#171,#172,#173,#174,#175,#176,#177
      ,#178,#179,#180,#181,#182,#183)
    ,(#184,#185,#186,#187,#188,#189,#190,#191,#192,#193,#194,#195,#196
      ,#197,#198,#199,#200,#201,#202
    )),.UNSPECIFIED.,.F.,.F.,.F.,(2,2),(11,8,11),(0.,1.E-01),(0.,
    1.648454154738,3.296908309476),.UNSPECIFIED.);
#165 = CARTESIAN_POINT('',(1.5,4.999999999984E-02,-8.881784197001E-16));
#166 = CARTESIAN_POINT('',(1.492147461839,0.285622341182,1.000000017839)
  );
#167 = CARTESIAN_POINT('',(1.443162749392,0.51985749225,2.000000178182)
  );
#168 = CARTESIAN_POINT('',(1.353349293821,0.744686831416,2.99999945185)
  );
#169 = CARTESIAN_POINT('',(1.224716654013,0.952005416893,4.000000742436)
  );
#170 = CARTESIAN_POINT('',(1.061245192444,1.134421784049,4.999999584978)
  );
#171 = CARTESIAN_POINT('',(0.868337541866,1.285412255988,6.000000090246)
  );
#172 = CARTESIAN_POINT('',(0.652897291432,1.399922449231,6.999999991102)
  );
#173 = CARTESIAN_POINT('',(0.422609733703,1.474584577606,8.000000028906)
  );
#174 = CARTESIAN_POINT('',(-5.137077557233E-02,1.541123357802,
    10.000000009856));
#175 = CARTESIAN_POINT('',(-0.519868181644,1.443168710521,
    11.999999990807));
#176 = CARTESIAN_POINT('',(-0.744672389421,1.353337904583,
    13.000000028611));
#177 = CARTESIAN_POINT('',(-0.952010623067,1.224728121193,
    13.999999929508));
#178 = CARTESIAN_POINT('',(-1.134427116226,1.06124340901,15.000000434643
    ));
#179 = CARTESIAN_POINT('',(-1.285409522432,0.868325251797,
    15.999999277371));
#180 = CARTESIAN_POINT('',(-1.39991775529,0.652915072348,17.000000567825
    ));
#181 = CARTESIAN_POINT('',(-1.474589536231,0.422598544906,
    17.999999841483));
#182 = CARTESIAN_POINT('',(-1.50785253845,0.18562234065,19.000000001993)
  );
#183 = CARTESIAN_POINT('',(-1.500000000148,-5.000000029366E-02,
    20.000000019611));
#184 = CARTESIAN_POINT('',(1.5,-5.000000000018E-02,-8.881784197001E-16)
  );
#185 = CARTESIAN_POINT('',(1.50785542543,0.185622341182,1.000000017839)
  );
#186 = CARTESIAN_POINT('',(1.474578674718,0.42259904914,2.00000017819));
#187 = CARTESIAN_POINT('',(1.39993488215,0.652911501207,2.999999451828)
  );
#188 = CARTESIAN_POINT('',(1.285395291659,0.868333963599,4.000000742464)
  );
#189 = CARTESIAN_POINT('',(1.134433599948,1.061233375976,4.999999584965)
  );
#190 = CARTESIAN_POINT('',(0.952008996199,1.224733617431,6.000000090247)
  );
#191 = CARTESIAN_POINT('',(0.744672621088,1.353336862676,6.999999991101)
  );
#192 = CARTESIAN_POINT('',(0.519868176924,1.443168651068,8.000000028908)
  );
#193 = CARTESIAN_POINT('',(5.137078120615E-02,1.541123357802,
    10.000000009856));
#194 = CARTESIAN_POINT('',(-0.422609738422,1.474584637059,
    11.999999990807));
#195 = CARTESIAN_POINT('',(-0.652897059767,1.399923491138,
    13.000000028612));
#196 = CARTESIAN_POINT('',(-0.868339168729,1.285406759749,
    13.999999929503));
#197 = CARTESIAN_POINT('',(-1.061238708731,1.134431817085,
    15.000000434667));
#198 = CARTESIAN_POINT('',(-1.224730884777,0.95199670509,15.999999277334
    ));
#199 = CARTESIAN_POINT('',(-1.353332166965,0.744690402558,
    17.000000567851));
#200 = CARTESIAN_POINT('',(-1.443173610905,0.519856988015,
    17.999999841477));
#201 = CARTESIAN_POINT('',(-1.492144574859,0.28562234065,19.000000001993
    ));
#202 = CARTESIAN_POINT('',(-1.500000000148,4.999999970636E-02,
    20.000000019612));
#203 = DEFINITIONAL_REPRESENTATION('',(#204),#208);
#204 = LINE('',#205,#206);
#205 = CARTESIAN_POINT('',(0.,0.));
#206 = VECTOR('',#207,1.);
#207 = DIRECTION('',(1.,0.));
#208 = ( GEOMETRIC_REPRESENTATION_CONTEXT(2) 
PARAMETRIC_REPRESENTATION_CONTEXT() REPRESENTATION_CONTEXT('2D SPACE',''
  ) );
#209 = ORIENTED_EDGE('',*,*,#210,.T.);
#210 = EDGE_CURVE('',#151,#22,#211,.T.);
#211 = SURFACE_CURVE('',#212,(#216,#223),.PCURVE_S1.);
#212 = LINE('',#213,#214);
#213 = CARTESIAN_POINT('',(1.5,-5.000000000013E-02,-1.899522206195E-16)
  );
#214 = VECTOR('',#215,1.);
#215 = DIRECTION('',(-1.,0.,0.));
#216 = PCURVE('',#31,#217);
#217 = DEFINITIONAL_REPRESENTATION('',(#218),#222);
#218 = LINE('',#219,#220);
#219 = CARTESIAN_POINT('',(5.000000000001E-02,-1.5));
#220 = VECTOR('',#221,1.);
#221 = DIRECTION('',(0.,1.));
#222 = ( GEOMETRIC_REPRESENTATION_CONTEXT(2) 
PARAMETRIC_REPRESENTATION_CONTEXT() REPRESENTATION_CONTEXT('2D SPACE',''
  ) );
#223 = PCURVE('',#224,#263);
#224 = B_SPLINE_SURFACE_WITH_KNOTS('',1,10,(
    (#225,#226,#227,#228,#229,#230,#231,#232,#233,#234,#235,#236,#237
      ,#238,#239,#240,#241,#242,#243)
    ,(#244,#245,#246,#247,#248,#249,#250,#251,#252,#253,#254,#255,#256
      ,#257,#258,#259,#260,#261,#262
    )),.UNSPECIFIED.,.F.,.F.,.F.,(2,2),(11,8,11),(0.,3.),(0.,
    1.648454154738,3.296908309476),.UNSPECIFIED.);
#225 = CARTESIAN_POINT('',(1.5,-5.000000000018E-02,-8.881784197001E-16)
  );
#226 = CARTESIAN_POINT('',(1.50785542543,0.185622341182,1.000000017839)
  );
#227 = CARTESIAN_POINT('',(1.474578674718,0.42259904914,2.00000017819));
#228 = CARTESIAN_POINT('',(1.39993488215,0.652911501207,2.999999451828)
  );
#229 = CARTESIAN_POINT('',(1.285395291659,0.868333963599,4.000000742464)
  );
#230 = CARTESIAN_POINT('',(1.134433599948,1.061233375976,4.999999584965)
  );
#231 = CARTESIAN_POINT('',(0.952008996199,1.224733617431,6.000000090247)
  );
#232 = CARTESIAN_POINT('',(0.744672621088,1.353336862676,6.999999991101)
  );
#233 = CARTESIAN_POINT('',(0.519868176924,1.443168651068,8.000000028908)
  );
#234 = CARTESIAN_POINT('',(5.137078120615E-02,1.541123357802,
    10.000000009856));
#235 = CARTESIAN_POINT('',(-0.422609738422,1.474584637059,
    11.999999990807));
#236 = CARTESIAN_POINT('',(-0.652897059767,1.399923491138,
    13.000000028612));
#237 = CARTESIAN_POINT('',(-0.868339168729,1.285406759749,
    13.999999929503));
#238 = CARTESIAN_POINT('',(-1.061238708731,1.134431817085,
    15.000000434667));
#239 = CARTESIAN_POINT('',(-1.224730884777,0.95199670509,15.999999277334
    ));
#240 = CARTESIAN_POINT('',(-1.353332166965,0.744690402558,
    17.000000567851));
#241 = CARTESIAN_POINT('',(-1.443173610905,0.519856988015,
    17.999999841477));
#242 = CARTESIAN_POINT('',(-1.492144574859,0.28562234065,19.000000001993
    ));
#243 = CARTESIAN_POINT('',(-1.500000000148,4.999999970636E-02,
    20.000000019612));
#244 = CARTESIAN_POINT('',(-1.5,-5.000000000018E-02,-8.881784197001E-16)
  );
#245 = CARTESIAN_POINT('',(-1.49214457457,-0.285616566541,1.000000017789
    ));
#246 = CARTESIAN_POINT('',(-1.443174618559,-0.519878710634,
    2.000000177712));
#247 = CARTESIAN_POINT('',(-1.35332502412,-0.744656148604,2.99999945333)
  );
#248 = CARTESIAN_POINT('',(-1.224748307194,-0.952025165911,
    4.000000740385));
#249 = CARTESIAN_POINT('',(-1.061218642182,-1.134418849017,
    4.999999586177));
#250 = CARTESIAN_POINT('',(-0.868350160547,-1.285410012618,6.00000008996
    ));
#251 = CARTESIAN_POINT('',(-0.652894975532,-1.399923026986,
    6.999999991129));
#252 = CARTESIAN_POINT('',(-0.422609619217,-1.474584645579,
    8.000000028829));
#253 = CARTESIAN_POINT('',(5.13707812069E-02,-1.541123345552,
    10.000000009833));
#254 = CARTESIAN_POINT('',(0.51986805772,-1.443168659587,11.99999999083)
  );
#255 = CARTESIAN_POINT('',(0.744670536853,-1.353336398527,
    13.000000028539));
#256 = CARTESIAN_POINT('',(0.95201998802,-1.224736870292,13.999999929646
    ));
#257 = CARTESIAN_POINT('',(1.134413533399,-1.061220407916,
    15.000000433603));
#258 = CARTESIAN_POINT('',(1.285412714076,-0.868362424413,15.99999927918
    ));
#259 = CARTESIAN_POINT('',(1.399927739306,-0.652877247253,
    17.000000566364));
#260 = CARTESIAN_POINT('',(1.474579682372,-0.422620771758,17.9999998419)
  );
#261 = CARTESIAN_POINT('',(1.507855425141,-0.185616567071,
    19.000000001986));
#262 = CARTESIAN_POINT('',(1.499999999852,4.999999970738E-02,
    20.00000001956));
#263 = DEFINITIONAL_REPRESENTATION('',(#264),#268);
#264 = LINE('',#265,#266);
#265 = CARTESIAN_POINT('',(0.,0.));
#266 = VECTOR('',#267,1.);
#267 = DIRECTION('',(1.,0.));
#268 = ( GEOMETRIC_REPRESENTATION_CONTEXT(2) 
PARAMETRIC_REPRESENTATION_CONTEXT() REPRESENTATION_CONTEXT('2D SPACE',''
  ) );
#269 = ADVANCED_FACE('',(#270),#42,.F.);
#270 = FACE_BOUND('',#271,.F.);
#271 = EDGE_LOOP('',(#272,#311,#312,#351));
#272 = ORIENTED_EDGE('',*,*,#273,.F.);
#273 = EDGE_CURVE('',#22,#274,#276,.T.);
#274 = VERTEX_POINT('',#275);
#275 = CARTESIAN_POINT('',(1.499999999852,4.999999970738E-02,
    20.00000001956));
#276 = SURFACE_CURVE('',#277,(#297,#304),.PCURVE_S1.);
#277 = B_SPLINE_CURVE_WITH_KNOTS('',10,(#278,#279,#280,#281,#282,#283,
    #284,#285,#286,#287,#288,#289,#290,#291,#292,#293,#294,#295,#296),
  .UNSPECIFIED.,.F.,.F.,(11,8,11),(0.,1.648454154738,3.296908309476),
  .UNSPECIFIED.);
#278 = CARTESIAN_POINT('',(-1.5,-5.000000000018E-02,-8.881784197001E-16)
  );
#279 = CARTESIAN_POINT('',(-1.49214457457,-0.285616566541,1.000000017789
    ));
#280 = CARTESIAN_POINT('',(-1.443174618559,-0.519878710634,
    2.000000177712));
#281 = CARTESIAN_POINT('',(-1.35332502412,-0.744656148604,2.99999945333)
  );
#282 = CARTESIAN_POINT('',(-1.224748307194,-0.952025165911,
    4.000000740385));
#283 = CARTESIAN_POINT('',(-1.061218642182,-1.134418849017,
    4.999999586177));
#284 = CARTESIAN_POINT('',(-0.868350160547,-1.285410012618,6.00000008996
    ));
#285 = CARTESIAN_POINT('',(-0.652894975532,-1.399923026986,
    6.999999991129));
#286 = CARTESIAN_POINT('',(-0.422609619217,-1.474584645579,
    8.000000028829));
#287 = CARTESIAN_POINT('',(5.13707812069E-02,-1.541123345552,
    10.000000009833));
#288 = CARTESIAN_POINT('',(0.51986805772,-1.443168659587,11.99999999083)
  );
#289 = CARTESIAN_POINT('',(0.744670536853,-1.353336398527,
    13.000000028539));
#290 = CARTESIAN_POINT('',(0.95201998802,-1.224736870292,13.999999929646
    ));
#291 = CARTESIAN_POINT('',(1.134413533399,-1.061220407916,
    15.000000433603));
#292 = CARTESIAN_POINT('',(1.285412714076,-0.868362424413,15.99999927918
    ));
#293 = CARTESIAN_POINT('',(1.399927739306,-0.652877247253,
    17.000000566364));
#294 = CARTESIAN_POINT('',(1.474579682372,-0.422620771758,17.9999998419)
  );
#295 = CARTESIAN_POINT('',(1.507855425141,-0.185616567071,
    19.000000001986));
#296 = CARTESIAN_POINT('',(1.499999999852,4.999999970738E-02,
    20.00000001956));
#297 = PCURVE('',#42,#298);
#298 = DEFINITIONAL_REPRESENTATION('',(#299),#303);
#299 = LINE('',#300,#301);
#300 = CARTESIAN_POINT('',(0.,0.));
#301 = VECTOR('',#302,1.);
#302 = DIRECTION('',(0.,1.));
#303 = ( GEOMETRIC_REPRESENTATION_CONTEXT(2) 
PARAMETRIC_REPRESENTATION_CONTEXT() REPRESENTATION_CONTEXT('2D SPACE',''
  ) );
#304 = PCURVE('',#224,#305);
#305 = DEFINITIONAL_REPRESENTATION('',(#306),#310);
#306 = LINE('',#307,#308);
#307 = CARTESIAN_POINT('',(3.,0.));
#308 = VECTOR('',#309,1.);
#309 = DIRECTION('',(0.,1.));
#310 = ( GEOMETRIC_REPRESENTATION_CONTEXT(2) 
PARAMETRIC_REPRESENTATION_CONTEXT() REPRESENTATION_CONTEXT('2D SPACE',''
  ) );
#311 = ORIENTED_EDGE('',*,*,#21,.T.);
#312 = ORIENTED_EDGE('',*,*,#313,.T.);
#313 = EDGE_CURVE('',#24,#314,#316,.T.);
#314 = VERTEX_POINT('',#315);
#315 = CARTESIAN_POINT('',(1.499999999853,-5.000000029264E-02,
    20.000000019559));
#316 = SURFACE_CURVE('',#317,(#337,#344),.PCURVE_S1.);
#317 = B_SPLINE_CURVE_WITH_KNOTS('',10,(#318,#319,#320,#321,#322,#323,
    #324,#325,#326,#327,#328,#329,#330,#331,#332,#333,#334,#335,#336),
  .UNSPECIFIED.,.F.,.F.,(11,8,11),(0.,1.648454154738,3.296908309476),
  .UNSPECIFIED.);
#318 = CARTESIAN_POINT('',(-1.5,4.999999999984E-02,0.));
#319 = CARTESIAN_POINT('',(-1.507852538161,-0.185616566541,
    1.000000017789));
#320 = CARTESIAN_POINT('',(-1.474590543885,-0.422620267524,
    2.000000177705));
#321 = CARTESIAN_POINT('',(-1.39991061245,-0.652880818395,2.999999453352
    ));
#322 = CARTESIAN_POINT('',(-1.285426944836,-0.868353712614,
    4.000000740358));
#323 = CARTESIAN_POINT('',(-1.134407049692,-1.061230440949,
    4.999999586188));
#324 = CARTESIAN_POINT('',(-0.952021614877,-1.224731374056,6.00000008996
    ));
#325 = CARTESIAN_POINT('',(-0.744670305188,-1.353337440434,
    6.999999991129));
#326 = CARTESIAN_POINT('',(-0.519868062439,-1.443168719041,
    8.000000028828));
#327 = CARTESIAN_POINT('',(-5.137077557161E-02,-1.541123345552,
    10.000000009833));
#328 = CARTESIAN_POINT('',(0.422609614499,-1.474584586125,
    11.999999990831));
#329 = CARTESIAN_POINT('',(0.652895207197,-1.399921985081,
    13.000000028537));
#330 = CARTESIAN_POINT('',(0.868348533687,-1.285415508852,
    13.999999929653));
#331 = CARTESIAN_POINT('',(1.061225125897,-1.134408815984,
    15.000000433575));
#332 = CARTESIAN_POINT('',(1.224734076428,-0.95203387771,15.99999927922)
  );
#333 = CARTESIAN_POINT('',(1.353342150978,-0.744652577462,
    17.000000566335));
#334 = CARTESIAN_POINT('',(1.443163757047,-0.519879214867,
    17.999999841908));
#335 = CARTESIAN_POINT('',(1.49214746155,-0.285616567071,19.000000001986
    ));
#336 = CARTESIAN_POINT('',(1.499999999853,-5.000000029264E-02,
    20.000000019559));
#337 = PCURVE('',#42,#338);
#338 = DEFINITIONAL_REPRESENTATION('',(#339),#343);
#339 = LINE('',#340,#341);
#340 = CARTESIAN_POINT('',(1.E-01,0.));
#341 = VECTOR('',#342,1.);
#342 = DIRECTION('',(0.,1.));
#343 = ( GEOMETRIC_REPRESENTATION_CONTEXT(2) 
PARAMETRIC_REPRESENTATION_CONTEXT() REPRESENTATION_CONTEXT('2D SPACE',''
  ) );
#344 = PCURVE('',#104,#345);
#345 = DEFINITIONAL_REPRESENTATION('',(#346),#350);
#346 = LINE('',#347,#348);
#347 = CARTESIAN_POINT('',(0.,0.));
#348 = VECTOR('',#349,1.);
#349 = DIRECTION('',(0.,1.));
#350 = ( GEOMETRIC_REPRESENTATION_CONTEXT(2) 
PARAMETRIC_REPRESENTATION_CONTEXT() REPRESENTATION_CONTEXT('2D SPACE',''
  ) );
#351 = ORIENTED_EDGE('',*,*,#352,.F.);
#352 = EDGE_CURVE('',#274,#314,#353,.T.);
#353 = SURFACE_CURVE('',#354,(#357,#364),.PCURVE_S1.);
#354 = B_SPLINE_CURVE_WITH_KNOTS('',1,(#355,#356),.UNSPECIFIED.,.F.,.F.,
  (2,2),(0.,1.E-01),.PIECEWISE_BEZIER_KNOTS.);
#355 = CARTESIAN_POINT('',(1.499999999852,4.999999970738E-02,
    20.00000001956));
#356 = CARTESIAN_POINT('',(1.499999999853,-5.000000029264E-02,
    20.000000019559));
#357 = PCURVE('',#42,#358);
#358 = DEFINITIONAL_REPRESENTATION('',(#359),#363);
#359 = LINE('',#360,#361);
#360 = CARTESIAN_POINT('',(0.,3.296908309476));
#361 = VECTOR('',#362,1.);
#362 = DIRECTION('',(1.,0.));
#363 = ( GEOMETRIC_REPRESENTATION_CONTEXT(2) 
PARAMETRIC_REPRESENTATION_CONTEXT() REPRESENTATION_CONTEXT('2D SPACE',''
  ) );
#364 = PCURVE('',#365,#370);
#365 = PLANE('',#366);
#366 = AXIS2_PLACEMENT_3D('',#367,#368,#369);
#367 = CARTESIAN_POINT('',(-1.471713073989E-10,-2.933688865313E-10,
    20.000000019586));
#368 = DIRECTION('',(-1.751961538806E-11,8.739675649831E-12,-1.));
#369 = DIRECTION('',(-1.,0.,1.751961538806E-11));
#370 = DEFINITIONAL_REPRESENTATION('',(#371),#374);
#371 = B_SPLINE_CURVE_WITH_KNOTS('',1,(#372,#373),.UNSPECIFIED.,.F.,.F.,
  (2,2),(0.,1.E-01),.PIECEWISE_BEZIER_KNOTS.);
#372 = CARTESIAN_POINT('',(-1.499999999999,5.000000000075E-02));
#373 = CARTESIAN_POINT('',(-1.5,-4.999999999927E-02));
#374 = ( GEOMETRIC_REPRESENTATION_CONTEXT(2) 
PARAMETRIC_REPRESENTATION_CONTEXT() REPRESENTATION_CONTEXT('2D SPACE',''
  ) );
#375 = ADVANCED_FACE('',(#376),#365,.F.);
#376 = FACE_BOUND('',#377,.F.);
#377 = EDGE_LOOP('',(#378,#379,#400,#421));
#378 = ORIENTED_EDGE('',*,*,#352,.T.);
#379 = ORIENTED_EDGE('',*,*,#380,.T.);
#380 = EDGE_CURVE('',#314,#381,#383,.T.);
#381 = VERTEX_POINT('',#382);
#382 = CARTESIAN_POINT('',(-1.500000000148,-5.000000029366E-02,
    20.000000019611));
#383 = SURFACE_CURVE('',#384,(#387,#393),.PCURVE_S1.);
#384 = B_SPLINE_CURVE_WITH_KNOTS('',1,(#385,#386),.UNSPECIFIED.,.F.,.F.,
  (2,2),(0.,3.),.PIECEWISE_BEZIER_KNOTS.);
#385 = CARTESIAN_POINT('',(1.499999999853,-5.000000029264E-02,
    20.000000019559));
#386 = CARTESIAN_POINT('',(-1.500000000148,-5.000000029366E-02,
    20.000000019611));
#387 = PCURVE('',#365,#388);
#388 = DEFINITIONAL_REPRESENTATION('',(#389),#392);
#389 = B_SPLINE_CURVE_WITH_KNOTS('',1,(#390,#391),.UNSPECIFIED.,.F.,.F.,
  (2,2),(0.,3.),.PIECEWISE_BEZIER_KNOTS.);
#390 = CARTESIAN_POINT('',(-1.5,-4.999999999927E-02));
#391 = CARTESIAN_POINT('',(1.5,-5.00000000003E-02));
#392 = ( GEOMETRIC_REPRESENTATION_CONTEXT(2) 
PARAMETRIC_REPRESENTATION_CONTEXT() REPRESENTATION_CONTEXT('2D SPACE',''
  ) );
#393 = PCURVE('',#104,#394);
#394 = DEFINITIONAL_REPRESENTATION('',(#395),#399);
#395 = LINE('',#396,#397);
#396 = CARTESIAN_POINT('',(0.,3.296908309476));
#397 = VECTOR('',#398,1.);
#398 = DIRECTION('',(1.,0.));
#399 = ( GEOMETRIC_REPRESENTATION_CONTEXT(2) 
PARAMETRIC_REPRESENTATION_CONTEXT() REPRESENTATION_CONTEXT('2D SPACE',''
  ) );
#400 = ORIENTED_EDGE('',*,*,#401,.T.);
#401 = EDGE_CURVE('',#381,#402,#404,.T.);
#402 = VERTEX_POINT('',#403);
#403 = CARTESIAN_POINT('',(-1.500000000148,4.999999970636E-02,
    20.000000019612));
#404 = SURFACE_CURVE('',#405,(#408,#414),.PCURVE_S1.);
#405 = B_SPLINE_CURVE_WITH_KNOTS('',1,(#406,#407),.UNSPECIFIED.,.F.,.F.,
  (2,2),(0.,1.E-01),.PIECEWISE_BEZIER_KNOTS.);
#406 = CARTESIAN_POINT('',(-1.500000000148,-5.000000029366E-02,
    20.000000019611));
#407 = CARTESIAN_POINT('',(-1.500000000148,4.999999970636E-02,
    20.000000019612));
#408 = PCURVE('',#365,#409);
#409 = DEFINITIONAL_REPRESENTATION('',(#410),#413);
#410 = B_SPLINE_CURVE_WITH_KNOTS('',1,(#411,#412),.UNSPECIFIED.,.F.,.F.,
  (2,2),(0.,1.E-01),.PIECEWISE_BEZIER_KNOTS.);
#411 = CARTESIAN_POINT('',(1.5,-5.00000000003E-02));
#412 = CARTESIAN_POINT('',(1.5,4.999999999973E-02));
#413 = ( GEOMETRIC_REPRESENTATION_CONTEXT(2) 
PARAMETRIC_REPRESENTATION_CONTEXT() REPRESENTATION_CONTEXT('2D SPACE',''
  ) );
#414 = PCURVE('',#164,#415);
#415 = DEFINITIONAL_REPRESENTATION('',(#416),#420);
#416 = LINE('',#417,#418);
#417 = CARTESIAN_POINT('',(0.,3.296908309476));
#418 = VECTOR('',#419,1.);
#419 = DIRECTION('',(1.,0.));
#420 = ( GEOMETRIC_REPRESENTATION_CONTEXT(2) 
PARAMETRIC_REPRESENTATION_CONTEXT() REPRESENTATION_CONTEXT('2D SPACE',''
  ) );
#421 = ORIENTED_EDGE('',*,*,#422,.T.);
#422 = EDGE_CURVE('',#402,#274,#423,.T.);
#423 = SURFACE_CURVE('',#424,(#428,#435),.PCURVE_S1.);
#424 = LINE('',#425,#426);
#425 = CARTESIAN_POINT('',(-1.500000000147,4.999999970613E-02,
    20.000000019612));
#426 = VECTOR('',#427,1.);
#427 = DIRECTION('',(1.,3.281819260792E-13,-1.751995076793E-11));
#428 = PCURVE('',#365,#429);
#429 = DEFINITIONAL_REPRESENTATION('',(#430),#434);
#430 = LINE('',#431,#432);
#431 = CARTESIAN_POINT('',(1.5,4.99999999995E-02));
#432 = VECTOR('',#433,1.);
#433 = DIRECTION('',(-1.,3.281819260792E-13));
#434 = ( GEOMETRIC_REPRESENTATION_CONTEXT(2) 
PARAMETRIC_REPRESENTATION_CONTEXT() REPRESENTATION_CONTEXT('2D SPACE',''
  ) );
#435 = PCURVE('',#224,#436);
#436 = DEFINITIONAL_REPRESENTATION('',(#437),#441);
#437 = LINE('',#438,#439);
#438 = CARTESIAN_POINT('',(0.,3.296908309476));
#439 = VECTOR('',#440,1.);
#440 = DIRECTION('',(1.,0.));
#441 = ( GEOMETRIC_REPRESENTATION_CONTEXT(2) 
PARAMETRIC_REPRESENTATION_CONTEXT() REPRESENTATION_CONTEXT('2D SPACE',''
  ) );
#442 = ADVANCED_FACE('',(#443),#104,.F.);
#443 = FACE_BOUND('',#444,.F.);
#444 = EDGE_LOOP('',(#445,#446,#447,#484));
#445 = ORIENTED_EDGE('',*,*,#313,.F.);
#446 = ORIENTED_EDGE('',*,*,#88,.T.);
#447 = ORIENTED_EDGE('',*,*,#448,.T.);
#448 = EDGE_CURVE('',#89,#381,#449,.T.);
#449 = SURFACE_CURVE('',#450,(#470,#477),.PCURVE_S1.);
#450 = B_SPLINE_CURVE_WITH_KNOTS('',10,(#451,#452,#453,#454,#455,#456,
    #457,#458,#459,#460,#461,#462,#463,#464,#465,#466,#467,#468,#469),
  .UNSPECIFIED.,.F.,.F.,(11,8,11),(0.,1.648454154738,3.296908309476),
  .UNSPECIFIED.);
#451 = CARTESIAN_POINT('',(1.5,4.999999999984E-02,-8.881784197001E-16));
#452 = CARTESIAN_POINT('',(1.492147461839,0.285622341182,1.000000017839)
  );
#453 = CARTESIAN_POINT('',(1.443162749392,0.51985749225,2.000000178182)
  );
#454 = CARTESIAN_POINT('',(1.353349293821,0.744686831416,2.99999945185)
  );
#455 = CARTESIAN_POINT('',(1.224716654013,0.952005416893,4.000000742436)
  );
#456 = CARTESIAN_POINT('',(1.061245192444,1.134421784049,4.999999584978)
  );
#457 = CARTESIAN_POINT('',(0.868337541866,1.285412255988,6.000000090246)
  );
#458 = CARTESIAN_POINT('',(0.652897291432,1.399922449231,6.999999991102)
  );
#459 = CARTESIAN_POINT('',(0.422609733703,1.474584577606,8.000000028906)
  );
#460 = CARTESIAN_POINT('',(-5.137077557233E-02,1.541123357802,
    10.000000009856));
#461 = CARTESIAN_POINT('',(-0.519868181644,1.443168710521,
    11.999999990807));
#462 = CARTESIAN_POINT('',(-0.744672389421,1.353337904583,
    13.000000028611));
#463 = CARTESIAN_POINT('',(-0.952010623067,1.224728121193,
    13.999999929508));
#464 = CARTESIAN_POINT('',(-1.134427116226,1.06124340901,15.000000434643
    ));
#465 = CARTESIAN_POINT('',(-1.285409522432,0.868325251797,
    15.999999277371));
#466 = CARTESIAN_POINT('',(-1.39991775529,0.652915072348,17.000000567825
    ));
#467 = CARTESIAN_POINT('',(-1.474589536231,0.422598544906,
    17.999999841483));
#468 = CARTESIAN_POINT('',(-1.50785253845,0.18562234065,19.000000001993)
  );
#469 = CARTESIAN_POINT('',(-1.500000000148,-5.000000029366E-02,
    20.000000019611));
#470 = PCURVE('',#104,#471);
#471 = DEFINITIONAL_REPRESENTATION('',(#472),#476);
#472 = LINE('',#473,#474);
#473 = CARTESIAN_POINT('',(3.,0.));
#474 = VECTOR('',#475,1.);
#475 = DIRECTION('',(0.,1.));
#476 = ( GEOMETRIC_REPRESENTATION_CONTEXT(2) 
PARAMETRIC_REPRESENTATION_CONTEXT() REPRESENTATION_CONTEXT('2D SPACE',''
  ) );
#477 = PCURVE('',#164,#478);
#478 = DEFINITIONAL_REPRESENTATION('',(#479),#483);
#479 = LINE('',#480,#481);
#480 = CARTESIAN_POINT('',(0.,0.));
#481 = VECTOR('',#482,1.);
#482 = DIRECTION('',(0.,1.));
#483 = ( GEOMETRIC_REPRESENTATION_CONTEXT(2) 
PARAMETRIC_REPRESENTATION_CONTEXT() REPRESENTATION_CONTEXT('2D SPACE',''
  ) );
#484 = ORIENTED_EDGE('',*,*,#380,.F.);
#485 = ADVANCED_FACE('',(#486),#164,.F.);
#486 = FACE_BOUND('',#487,.F.);
#487 = EDGE_LOOP('',(#488,#489,#490,#527));
#488 = ORIENTED_EDGE('',*,*,#448,.F.);
#489 = ORIENTED_EDGE('',*,*,#150,.T.);
#490 = ORIENTED_EDGE('',*,*,#491,.T.);
#491 = EDGE_CURVE('',#151,#402,#492,.T.);
#492 = SURFACE_CURVE('',#493,(#513,#520),.PCURVE_S1.);
#493 = B_SPLINE_CURVE_WITH_KNOTS('',10,(#494,#495,#496,#497,#498,#499,
    #500,#501,#502,#503,#504,#505,#506,#507,#508,#509,#510,#511,#512),
  .UNSPECIFIED.,.F.,.F.,(11,8,11),(0.,1.648454154738,3.296908309476),
  .UNSPECIFIED.);
#494 = CARTESIAN_POINT('',(1.5,-5.000000000018E-02,-8.881784197001E-16)
  );
#495 = CARTESIAN_POINT('',(1.50785542543,0.185622341182,1.000000017839)
  );
#496 = CARTESIAN_POINT('',(1.474578674718,0.42259904914,2.00000017819));
#497 = CARTESIAN_POINT('',(1.39993488215,0.652911501207,2.999999451828)
  );
#498 = CARTESIAN_POINT('',(1.285395291659,0.868333963599,4.000000742464)
  );
#499 = CARTESIAN_POINT('',(1.134433599948,1.061233375976,4.999999584965)
  );
#500 = CARTESIAN_POINT('',(0.952008996199,1.224733617431,6.000000090247)
  );
#501 = CARTESIAN_POINT('',(0.744672621088,1.353336862676,6.999999991101)
  );
#502 = CARTESIAN_POINT('',(0.519868176924,1.443168651068,8.000000028908)
  );
#503 = CARTESIAN_POINT('',(5.137078120615E-02,1.541123357802,
    10.000000009856));
#504 = CARTESIAN_POINT('',(-0.422609738422,1.474584637059,
    11.999999990807));
#505 = CARTESIAN_POINT('',(-0.652897059767,1.399923491138,
    13.000000028612));
#506 = CARTESIAN_POINT('',(-0.868339168729,1.285406759749,
    13.999999929503));
#507 = CARTESIAN_POINT('',(-1.061238708731,1.134431817085,
    15.000000434667));
#508 = CARTESIAN_POINT('',(-1.224730884777,0.95199670509,15.999999277334
    ));
#509 = CARTESIAN_POINT('',(-1.353332166965,0.744690402558,
    17.000000567851));
#510 = CARTESIAN_POINT('',(-1.443173610905,0.519856988015,
    17.999999841477));
#511 = CARTESIAN_POINT('',(-1.492144574859,0.28562234065,19.000000001993
    ));
#512 = CARTESIAN_POINT('',(-1.500000000148,4.999999970636E-02,
    20.000000019612));
#513 = PCURVE('',#164,#514);
#514 = DEFINITIONAL_REPRESENTATION('',(#515),#519);
#515 = LINE('',#516,#517);
#516 = CARTESIAN_POINT('',(1.E-01,0.));
#517 = VECTOR('',#518,1.);
#518 = DIRECTION('',(0.,1.));
#519 = ( GEOMETRIC_REPRESENTATION_CONTEXT(2) 
PARAMETRIC_REPRESENTATION_CONTEXT() REPRESENTATION_CONTEXT('2D SPACE',''
  ) );
#520 = PCURVE('',#224,#521);
#521 = DEFINITIONAL_REPRESENTATION('',(#522),#526);
#522 = LINE('',#523,#524);
#523 = CARTESIAN_POINT('',(0.,0.));
#524 = VECTOR('',#525,1.);
#525 = DIRECTION('',(0.,1.));
#526 = ( GEOMETRIC_REPRESENTATION_CONTEXT(2) 
PARAMETRIC_REPRESENTATION_CONTEXT() REPRESENTATION_CONTEXT('2D SPACE',''
  ) );
#527 = ORIENTED_EDGE('',*,*,#401,.F.);
#528 = ADVANCED_FACE('',(#529),#224,.F.);
#529 = FACE_BOUND('',#530,.F.);
#530 = EDGE_LOOP('',(#531,#532,#533,#534));
#531 = ORIENTED_EDGE('',*,*,#491,.F.);
#532 = ORIENTED_EDGE('',*,*,#210,.T.);
#533 = ORIENTED_EDGE('',*,*,#273,.T.);
#534 = ORIENTED_EDGE('',*,*,#422,.F.);
#535 = ( GEOMETRIC_REPRESENTATION_CONTEXT(3) 
GLOBAL_UNCERTAINTY_ASSIGNED_CONTEXT((#539)) GLOBAL_UNIT_ASSIGNED_CONTEXT
((#536,#537,#538)) REPRESENTATION_CONTEXT('Context #1',
  '3D Context with UNIT and UNCERTAINTY') );
#536 = ( LENGTH_UNIT() NAMED_UNIT(*) SI_UNIT(.MILLI.,.METRE.) );
#537 = ( NAMED_UNIT(*) PLANE_ANGLE_UNIT() SI_UNIT($,.RADIAN.) );
#538 = ( NAMED_UNIT(*) SI_UNIT($,.STERADIAN.) SOLID_ANGLE_UNIT() );
#539 = UNCERTAINTY_MEASURE_WITH_UNIT(LENGTH_MEASURE(1.E-07),#536,
  'distance_accuracy_value','confusion accuracy');
#540 = PRODUCT_RELATED_PRODUCT_CATEGORY('part',$,(#7));
#541 = MECHANICAL_DESIGN_GEOMETRIC_PRESENTATION_REPRESENTATION('',(#542)
  ,#535);
#542 = STYLED_ITEM('color',(#543),#15);
#543 = PRESENTATION_STYLE_ASSIGNMENT((#544,#550));
#544 = SURFACE_STYLE_USAGE(.BOTH.,#545);
#545 = SURFACE_SIDE_STYLE('',(#546));
#546 = SURFACE_STYLE_FILL_AREA(#547);
#547 = FILL_AREA_STYLE('',(#548));
#548 = FILL_AREA_STYLE_COLOUR('',#549);
#549 = COLOUR_RGB('',0.800000010877,0.800000010877,0.800000010877);
#550 = CURVE_STYLE('',#551,POSITIVE_LENGTH_MEASURE(0.1),#552);
#551 = DRAUGHTING_PRE_DEFINED_CURVE_FONT('continuous');
#552 = COLOUR_RGB('',9.803921802644E-02,9.803921802644E-02,
  9.803921802644E-02);
ENDSEC;
END-ISO-10303-21;
